<svg id="eSnycAFXUkd1" xmlns="http://www.w3.org/2000/svg" xmlns:xlink="http://www.w3.org/1999/xlink" viewBox="0 0 300 300" shape-rendering="geometricPrecision" text-rendering="geometricPrecision"><defs><linearGradient id="eSnycAFXUkd2-fill" x1="0.946202" y1="1" x2="0.174077" y2="0" spreadMethod="pad" gradientUnits="objectBoundingBox" gradientTransform="translate(0 0)"><stop id="eSnycAFXUkd2-fill-0" offset="0%" stop-color="#093b8e"/><stop id="eSnycAFXUkd2-fill-1" offset="100%" stop-color="#71f6b8"/></linearGradient></defs><path d="M-103.988209,-0.656077C-105.300364,-80.697475,-83.649821,-104.768424,0,-104.378317s104.644287,19.088303,104.378317,104.378317-16.792033,103.332132-104.378317,104.378317-102.676055-19.74438-103.988209-105.034394Z" transform="matrix(1.180665 0 0 1.180665 150 149.982705)" fill="url(#eSnycAFXUkd2-fill)" stroke-width="0"/><g transform="translate(.007107 5.016884)"><path d="M107.774746,89.966247c0,0,102.246844-.000001,102.246844,0s0,110.033731,0,110.033731" transform="matrix(1 0 0 0.999998 0 0.00018)" stroke="#3f5787" stroke-width="0.6"/><path d="M89.964195,199.999978q0,0,0,0c0,0,0-110.033731,0-110.033731q0,0,0,0c0,0,102.663366,110.033973,102.663366,110.033973" transform="matrix(1 0 0 0.999998 0 0.00018)" stroke="#3f5787" stroke-width="0.6"/><g transform="translate(.208279 4.982991)"><g transform="translate(.000001 0)"><rect width="60" height="60" rx="0" ry="0" transform="translate(120 110)" fill="#fff" stroke-width="0"/><rect width="60" height="60" rx="0" ry="0" transform="matrix(.707107 0.707107-.707107 0.707107 149.992893 97.573593)" fill="#fff" stroke-width="0"/></g><g transform="matrix(.3 0 0 0.3 104.995023 98.000011)"><rect width="60" height="60" rx="0" ry="0" transform="translate(120 110)" stroke-width="0"/><rect width="60" height="60" rx="0" ry="0" transform="matrix(.707107 0.707107-.707107 0.707107 149.992893 97.573593)" stroke-width="0"/></g></g></g></svg>
